<?xml version="1.0" encoding="iso-8859-1"?>
<!-- Generator: Adobe Illustrator 19.0.0, SVG Export Plug-In . SVG Version: 6.00 Build 0)  -->
<svg version="1.1" id="Capa_1" xmlns="http://www.w3.org/2000/svg" xmlns:xlink="http://www.w3.org/1999/xlink" x="0px" y="0px"
	 viewBox="0 0 512 512" style="enable-background:new 0 0 512 512;" xml:space="preserve">
<path style="fill:#D8E0EA;" d="M431.641,357.27c-0.05,0-1.608-1.518-1.709-1.417c-30.272,17.287-51.318,31.066-67.529,39.036
	c-21.046,10.332-33.93,10.875-48.252-3.447L178.279,255.539c-14.764-14.764-14.764-38.694,0-53.458l3.206-3.206l46.112-46.232
	l166.446,165.431C425.471,350.798,431.471,356.969,431.641,357.27z"/>
<path style="fill:#FFFFFF;" d="M431.641,357.27c-0.05,0-1.608-1.518-1.709-1.417c-30.272,17.287-51.318,31.066-67.529,39.036
	L195.375,227.83c-8.101-8.101-12.744-18.382-13.89-28.955l46.112-46.232l166.446,165.431
	C425.471,350.798,431.471,356.969,431.641,357.27z"/>
<g>
	
		<rect x="201.918" y="319.253" transform="matrix(-0.7071 -0.7071 0.7071 -0.7071 118.5265 784.8779)" style="fill:#FFC843;" width="39.797" height="97.278"/>
	<rect x="44.009" y="393.476" style="fill:#FFC843;" width="115.128" height="39.146"/>
</g>
<path style="fill:#ADB5BD;" d="M198.079,438.639c-3.819,3.819-8.272,6.603-13.015,8.362c-12.844,4.734-27.84,1.95-38.152-8.362
	c-14.131-14.131-14.131-37.036,0-51.167c10.312-10.312,25.307-13.096,38.152-8.352c4.744,1.749,9.196,4.533,13.015,8.352
	C212.21,401.603,212.21,424.508,198.079,438.639z"/>
<path style="fill:#C1C8D2;" d="M198.079,438.639c-3.819,3.819-8.272,6.603-13.015,8.362c-4.754-1.759-9.206-4.543-13.025-8.362
	c-14.131-14.131-14.131-37.036,0-51.167c3.819-3.819,8.272-6.603,13.025-8.352c4.744,1.749,9.196,4.533,13.015,8.352
	C212.21,401.603,212.21,424.508,198.079,438.639z"/>
<path style="fill:#ADB5BD;" d="M60.789,346.597v118.425c0,17.97-14.563,32.543-32.543,32.543H19.2
	c-6.442,0-11.659-5.226-11.659-11.669V325.722c0-6.442,5.216-11.669,11.659-11.669h9.045c3.106,0,6.101,0.432,8.945,1.246
	C50.819,319.179,60.789,331.722,60.789,346.597z"/>
<path style="fill:#C1C8D2;" d="M60.789,346.597v115.158c-0.955,0.09-1.92,0.131-2.895,0.131h-9.045
	c-6.442,0-11.659-5.226-11.659-11.669V315.299C50.819,319.179,60.789,331.722,60.789,346.597z"/>
<path style="fill:#ADB5BD;" d="M434.415,360.125l-38.724-40.322c-6.04-6.292-14.704-9.337-23.357-8.201l-59.981,7.849
	c-8.452,1.106-16.935-1.779-22.965-7.799l-80.313-80.313c-16.613-16.613-16.613-43.559,0-60.172l42.242-42.242
	c16.613-16.613,43.559-16.613,60.172,0c0,0,183.914,183.924,184.295,184.346c3.789,4.141,6.211,8.231,7.508,12.191
	C513.533,356.687,453.551,380.055,434.415,360.125z"/>
<path style="fill:#E1EAF8;" d="M503.291,325.46c-16.875,11.85-43.478,15.679-55.077,3.598l-38.724-40.322
	c-6.04-6.292-14.704-9.337-23.357-8.201l-59.981,7.849c-8.452,1.106-16.935-1.779-22.965-7.799l-80.313-80.313
	c-8.392-8.392-12.553-19.428-12.463-30.443l40.905-40.905c16.613-16.613,43.559-16.613,60.172,0
	c0,0,183.914,183.924,184.295,184.346C499.573,317.41,501.995,321.501,503.291,325.46z"/>
<g>
	<circle style="fill:#FF0C38;" cx="283.765" cy="158.094" r="12.916"/>
	<circle style="fill:#FF0C38;" cx="318.61" cy="192.939" r="12.916"/>
</g>
<g>
	<circle style="fill:#FFA816;" cx="283.765" cy="158.094" r="12.916"/>
	<circle style="fill:#FFA816;" cx="318.61" cy="192.939" r="12.916"/>
</g>
<g>
	<path style="fill:#FFC843;" d="M283.764,163.974c-3.243,0-5.882-2.638-5.882-5.881s2.638-5.881,5.882-5.881
		c3.243,0,5.882,2.638,5.882,5.881S287.006,163.974,283.764,163.974z"/>
	<path style="fill:#FFC843;" d="M318.615,198.825c-3.243,0-5.882-2.638-5.882-5.881s2.638-5.881,5.882-5.881
		c3.243,0,5.882,2.638,5.882,5.881S321.857,198.825,318.615,198.825z"/>
</g>
<g>
	<path style="fill:#434C54;" d="M173.363,250.844c3.816-1.663,5.561-6.107,3.898-9.923c-4.803-11.013-2.783-24.386,6.352-33.52
		l73.036-73.149c6.613-6.612,15.403-10.253,24.754-10.253c9.352,0,18.143,3.641,24.755,10.253c0,0,75.664,75.671,130.03,130.052
		c2.942,2.944,7.715,2.945,10.66,0.001c2.944-2.944,2.945-7.716,0.001-10.661c-54.366-54.381-130.03-130.053-130.031-130.053
		c-9.46-9.46-22.038-14.669-35.415-14.669s-25.953,5.209-35.414,14.669c-65.829,65.875-29.542,29.579-73.042,73.155
		c-8.564,8.564-13.281,19.95-13.281,32.061c0,6.291,1.27,12.394,3.775,18.139C165.105,250.762,169.545,252.509,173.363,250.844z"/>
	<path style="fill:#434C54;" d="M501.349,308.189c-0.179-0.196-0.252-0.277-33.119-33.156c-2.945-2.945-7.717-2.945-10.661-0.002
		c-2.944,2.943-2.945,7.716-0.002,10.66c20.607,20.615,31.616,31.631,32.747,32.771c4.386,4.833,6.61,9.582,6.61,14.118
		c0,20.365-43.806,35.592-57.075,22.323c-10.049-10.049-21.777-0.913-21.777-0.913c-9.112,5.292-17.327,10.205-24.771,14.658
		c-26.439,15.812-43.905,26.259-56.173,26.259c-6.204,0-11.483-2.631-17.65-8.798L194.93,261.534
		c-2.945-2.944-7.718-2.944-10.66-0.001c-2.945,2.944-2.945,7.716-0.001,10.66l47.217,47.226l-50.695,50.695
		c-16.426-3.176-32.734,3.303-42.604,15.829H68.329v-23c0-4.163-3.374-7.538-7.538-7.538s-7.538,3.375-7.538,7.538v102.076
		c0,13.787-11.216,25.004-25.004,25.004h-9.046c-2.276,0-4.128-1.852-4.128-4.128V325.721c0-2.276,1.852-4.129,4.128-4.129h9.046
		c9.808,0,18.757,5.777,22.799,14.719c1.715,3.793,6.179,5.481,9.973,3.764c3.793-1.715,5.479-6.18,3.764-9.973
		c-6.476-14.327-20.818-23.584-36.536-23.584h-9.046C8.614,306.516,0,315.132,0,325.721v160.174
		c0,10.589,8.614,19.203,19.203,19.203h9.046c22.099,0,40.079-17.979,40.079-40.079v-24.854h69.869
		c16.408,20.668,46.846,22.182,65.207,3.799c8.819-8.808,13.221-20.857,12.794-31.659l54.083-54.083l38.536,38.544
		c9.016,9.015,18.011,13.214,28.31,13.214c16.433,0,34.303-10.689,63.911-28.397c8.257-4.939,17.48-10.452,27.785-16.398
		l0.151,0.157c15.046,15.669,45.163,10.315,63.273-1.565c12.738-8.355,19.752-19.436,19.752-31.2
		C512,324.128,508.416,315.923,501.349,308.189z M130.439,425.091H68.81V401.02h61.629
		C128.289,408.592,128.139,416.969,130.439,425.091z M199.164,423.523c-4.008,10.335-14.238,18.171-26.674,18.171
		c-15.889,0-28.644-12.873-28.644-28.644c0-25.487,30.925-38.232,48.906-20.252C201.17,401.217,203.135,413.426,199.164,423.523z
		 M212.28,394.909c-3.579-7.9-9.454-14.362-16.242-18.714l46.102-46.112l17.478,17.488L212.28,394.909z"/>
</g>
<g>
	<path style="fill:#5DE0BF;" d="M254.096,78.65c-2.944,2.944-2.944,7.717,0,10.66c2.945,2.944,7.717,2.944,10.661,0
		c9.601-9.601,25.143-9.604,34.744,0c1.472,1.471,3.401,2.208,5.331,2.208c1.929,0,3.858-0.736,5.33-2.207
		c2.945-2.944,2.945-7.717,0.001-10.661c-7.488-7.489-17.443-11.612-28.033-11.612C271.541,67.039,261.585,71.163,254.096,78.65z"/>
	<path style="fill:#5DE0BF;" d="M332.383,67.09c2.945-2.944,2.945-7.717,0.001-10.661c-27.769-27.772-72.732-27.776-100.507,0
		c-2.944,2.944-2.944,7.717,0.001,10.661c1.471,1.471,3.401,2.207,5.33,2.207c1.929,0,3.858-0.736,5.331-2.208
		c21.878-21.881,57.304-21.884,79.185-0.001C324.666,70.034,329.439,70.035,332.383,67.09z"/>
	<path style="fill:#5DE0BF;" d="M222.251,46.802c33.09-33.093,86.664-33.1,119.759,0c1.472,1.471,3.401,2.208,5.331,2.208
		c1.929,0,3.858-0.736,5.33-2.207c2.945-2.944,2.945-7.717,0.001-10.661c-38.983-38.986-102.094-38.991-141.081,0
		c-2.944,2.944-2.944,7.717,0.001,10.661C214.533,49.747,219.306,49.746,222.251,46.802z"/>
</g>
<g>
</g>
<g>
</g>
<g>
</g>
<g>
</g>
<g>
</g>
<g>
</g>
<g>
</g>
<g>
</g>
<g>
</g>
<g>
</g>
<g>
</g>
<g>
</g>
<g>
</g>
<g>
</g>
<g>
</g>
</svg>
