<svg id="line" height="512" viewBox="0 0 64 64" width="512" xmlns="http://www.w3.org/2000/svg"><g fill="#c4a2fc"><path d="m23 50h34v-22h-34zm25.80469-7.78809-13.55176 4.86914a.99975.99975 0 1 1 -.67578-1.88183l13.55176-4.86914a.99975.99975 0 1 1 .67578 1.88183zm-17.60938-6.42382 13.55176-4.86909a.99975.99975 0 1 1 .67578 1.88183l-13.55176 4.86909a.99975.99975 0 1 1 -.67578-1.88183zm-2.82617 6.32861 22.58594-8.11524a.99975.99975 0 1 1 .67578 1.88184l-22.58594 8.11524a.99975.99975 0 1 1 -.67578-1.88184z"/><path d="m60 22h-40a3.00328 3.00328 0 0 0 -3 3v28a3.00328 3.00328 0 0 0 3 3h40a3.00328 3.00328 0 0 0 3-3v-28a3.00328 3.00328 0 0 0 -3-3zm-1 29a.99974.99974 0 0 1 -1 1h-36a.99974.99974 0 0 1 -1-1v-24a.99974.99974 0 0 1 1-1h36a.99974.99974 0 0 1 1 1z"/><path d="m50 61h-1.11536a3.63984 3.63984 0 0 1 -3.58313-3h-10.603a3.63984 3.63984 0 0 1 -3.58313 3h-1.11538a1 1 0 0 0 0 2h20a1 1 0 0 0 0-2z"/></g><path d="m48 1h-36a3.00328 3.00328 0 0 0 -3 3v12a3.00328 3.00328 0 0 0 3 3h9a4.99227 4.99227 0 0 0 3.64862 4.79089l-3.10956 8.55091a1.00317 1.00317 0 0 1 -.93945.6582h-11.59961v-9a3.00328 3.00328 0 0 0 -3-3h-4a.99974.99974 0 0 0 -1 1v24a.99974.99974 0 0 0 1 1h4a3.00328 3.00328 0 0 0 3-3v-9h11.59961a3.00691 3.00691 0 0 0 2.81839-1.97461l3.30884-9.09888a4.99308 4.99308 0 0 0 4.27316-4.92651h7.76367a2.98063 2.98063 0 0 0 2.23505-1h5.00128a.99974.99974 0 0 0 1-1v-10.76367l1.89453-3.78906a1.00066 1.00066 0 0 0 -.89453-1.44727zm-41 43a1.001 1.001 0 0 1 -1 1h-3v-22h3a1.001 1.001 0 0 1 1 1zm19-22a3.00328 3.00328 0 0 1 -3-3h6a3.00328 3.00328 0 0 1 -3 3zm12.76367-5h-26.76367a1.001 1.001 0 0 1 -1-1v-12a1.001 1.001 0 0 1 1-1h34.38184l-6.72364 13.44727a.99577.99577 0 0 1 -.89453.55273zm6.23633-1h-2.88184l2.88184-5.76367z" fill="#151a6a"/></svg>