<svg height="512" viewBox="0 0 58 58" width="512" xmlns="http://www.w3.org/2000/svg"><g id="Page-1" fill="none" fill-rule="evenodd"><g id="023---Baby" fill-rule="nonzero"><circle id="Oval" cx="29" cy="29" fill="#fac176" r="29"/><g fill="#802d40"><path id="Shape" d="m17.33 34.74c-1.8809856 1.2631405-3.6477351 2.6885861-5.28 4.26-1.3380936 1.5543847-2.25864374 3.4237038-2.675 5.432-3.48587678-4.3878078-5.38072819-9.8280584-5.375-15.432 0-.13 0-.26.01-.39.08 2.62 1.8 5.39 6.04 5.39 2.4395585.0969608 4.8708286.3440954 7.28.74z"/><path id="Shape" d="m53.08 22.31c-1.6509671-3.8122249-5.4058065-6.2821532-9.5601667-6.2886647-4.1543601-.0065115-7.9169238 2.451634-9.5798333 6.2586647-.9022555 2.0161745-1.1606687 4.261576-.74 6.43-1.6043884-.7033525-3.3925525-.8716503-5.1-.48-.5953113.1723108-1.1139293.5427523-1.47 1.05-.1804677-.1599189-.374536-.3037971-.58-.43-.7766551-.5046052-1.6746249-.7912648-2.6-.83-.1493728-.0168649-.29972-.023547-.45-.02h-11.95c-1 0 0-4-4-4-1.69 0-2.84 1.77-3.02 3.82.61138261-13.1238321 11.2849032-23.53073322 24.42-23.81.18-.01.37-.01.55-.01 1.3530208-.0006111 2.703947.10639295 4.04.32 9.6150339 1.57894378 17.4366157 8.6004137 20.04 17.99z"/><path id="Shape" d="m39.114 51.846c1.4684538-1.4685409 2.7715642-3.0935726 3.886-4.846.6850383-1.4109947 1.1504108-2.9183969 1.38-4.47v-.01c.08-.43.15-.82.22-1.18v-.01c.0855454-.7506676.4077596-1.4546356.92-2.01.1446181-.1281093.306123-.2357791.48-.32 2.53-1.27 5.76-3.27 7-6 .5394471-1.7167833.8652365-3.493511.97-5.29.02.43.03.86.03 1.29-.0001993 9.8911985-5.8377798 18.8503122-14.886 22.846z"/></g><path id="Shape" d="m30 22.86c0 2.75-2.02 4.72-3.95 5.99-1.089259.7039127-2.2572159 1.2778225-3.48 1.71-.1029061.0353159-.2112257.0522409-.32.05-.4299159.0011098-.8124279-.2726883-.95-.68-.1694113-.5241509.1101719-1.0877552.63-1.27.02-.01.66-.23 1.52-.64 1.79-.88 4.55-2.64 4.55-5.16 0-1.94-.84-2.69-2-3.73-1.9756572-1.465027-3.0988055-3.8124071-3-6.27-.0818209-3.76508031 2.0510034-7.22847399 5.45-8.85.18-.01.37-.01.55-.01 1.3530208-.0006111 2.703947.10639295 4.04.32l-3.67 1.47c-2.7358605 1.2747402-4.4530431 4.05288233-4.37 7.07-.0995807 1.8936382.7851071 3.7046015 2.34 4.79 1.6891437 1.1938636 2.6836128 3.1416772 2.66 5.21z" fill="#fb7b76"/><path id="Shape" d="m53.97 27.69v.02c-.1047635 1.796489-.4305529 3.5732167-.97 5.29-1.24 2.73-4.47 4.73-7 6-.173877.0842209-.3353819.1918907-.48.32-.5122404.5553644-.8344546 1.2593324-.92 2.01v.01c-.07.36-.14.75-.22 1.18v.01c-.2295892 1.5516031-.6949617 3.0590053-1.38 4.47-1.1202863 1.7563667-2.4279481 3.3859144-3.9 4.86-3.1780899 1.4175819-6.6200939 2.1468778-10.1 2.14-7.6632526.0024983-14.9019765-3.5191427-19.63-9.55.41505602-2.0151076 1.3374935-3.8909598 2.68-5.45 1.6322649-1.5714139 3.3990144-2.9968595 5.28-4.26-2.4091714-.3959046-4.8404415-.6430392-7.28-.74-4.24 0-5.96-2.77-6.04-5.39 0-.26.01-.53.02-.79.18-2.05 1.33-3.82 3.02-3.82 4 0 3 4 4 4h11.95c1.3274384-.0419379 2.6224654.4147107 3.63 1.28.3560707-.5072477.8746887-.8776892 1.47-1.05 1.7074475-.3916503 3.4956116-.2233525 5.1.48-.4206687-2.168424-.1622555-4.4138255.74-6.43 1.6629095-3.8070307 5.4254732-6.2651762 9.5798333-6.2586647 4.1543602.0065115 7.9091996 2.4764398 9.5601667 6.2886647.0039513.0176285.0107037.0345095.02.05.4845415 1.7393955.7762957 3.5268093.87 5.33z" fill="#fdd7ad"/><path id="Shape" d="m45.52 39.32c-.5122404.5553644-.8344546 1.2593324-.92 2.01-.7859591-1.0659032-1.8375669-1.9071894-3.05-2.44l-8-4c-.3460386-.1440974-.5824323-.4696151-.6123817-.8432591s.1515756-.73266.4702434-.9300368c.3186678-.1973769.7209575-.1999648 1.0421383-.0067041l8 4c1.1484249.5451793 2.1885601 1.2939411 3.07 2.21z" fill="#f9c795"/><path id="Shape" d="m46.415 33c-.7959841.0013532-1.5596752-.3146321-2.122-.878-.3789722-.3923789-.3735524-1.0160848.0121814-1.4018186s1.0094397-.3911536 1.4018186-.0121814c.3904653.3907414 1.0237585.3909653 1.4145.0005.3907414-.3904653.3909653-1.0237585.0005-1.4145-.2599566-.2510745-.3642126-.6228779-.2726972-.9725073.0915155-.3496295.3645604-.6226744.7141899-.7141899.3496294-.0915154.7214328.0127406.9725073.2726972.8570093.8580761 1.113097 2.1477392.6489558 3.2681554-.4641412 1.1204163-1.5572072 1.8511819-2.7699558 1.8518446z" fill="#f9c795"/><path id="Shape" d="m37.279 29.694c-.218-.151-5.364-3.687-9.475-2.417-1.3692755.407391-2.3993234 1.5410601-2.674 2.943-.41 1.8.148 4.034 1.575 6.532-.313.866-.644 1.611-.73 1.783-.875 1.665-3.575 3.565-6.432 4.516-.3394023.1130746-.5926984.3986287-.6644741.749097s.0488734.7126063.3165.95c.2676266.2373938.6415718.3139776.9809741.200903 3.4-1.134 6.443-3.338 7.578-5.5.058-.115.16-.339.286-.632 1.6361263 2.2177845 3.4878257 4.2681196 5.528 6.121.406327.3638274 1.029249.3349596 1.4001854-.064888.3709364-.3998477.3530585-1.0231819-.0401854-1.401112-6.553-6.079-8.35-10.6-7.848-12.807.1196384-.7054997.6325875-1.2802358 1.32-1.479 3.172-.98 7.7 2.117 7.742 2.148.4534258.3153546 1.0766454.2034258 1.392-.25s.2034258-1.0766454-.25-1.392z" fill="#f9c795"/></g></g></svg>