<svg id="Layer_1" enable-background="new 0 0 256 256" height="512" viewBox="0 0 256 256" width="512" xmlns="http://www.w3.org/2000/svg"><g><g><path d="m151.198 125.401c0 6.632-1.838 12.846-5.027 18.14h-16.558c-2.571 0-4.654-2.083-4.654-4.666v-12.52c0-4.84-3.921-8.785-8.785-8.785-4.794 0-8.785 3.875-8.785 8.785v33.15c-15.243-3.851-26.53-17.663-26.53-34.104 0-19.42 15.743-35.175 35.163-35.175 19.433 0 35.176 15.755 35.176 35.175z" fill="#13bf6d"/></g><g><g><path d="m161.307 174.421h-55.035c-2.776 0-5.024 2.249-5.024 5.024v15.864h65.099v-15.864c0-2.775-2.264-5.024-5.04-5.024z" fill="#fff"/></g><g><path d="m169.172 195.308h-70.75c-1.714 0-3.102 1.389-3.102 3.102v52.649h76.955c0-19.747 0-34.161 0-52.649 0-1.714-1.389-3.102-3.103-3.102z" fill="#72c1e8"/></g><g><path d="m151.431 143.541h-5.259-16.558c-2.571 0-4.654-2.083-4.654-4.666v-12.52c0-4.84-3.921-8.785-8.785-8.785-4.794 0-8.785 3.875-8.785 8.785v48.067h52.815v-22.108c-.001-4.887-3.957-8.773-8.774-8.773z" fill="#ffb69f"/></g><g><path d="m161.298 235.4c-1.381 0-2.5-1.119-2.5-2.5v-3c0-1.381 1.119-2.5 2.5-2.5s2.5 1.119 2.5 2.5v3c0 1.381-1.119 2.5-2.5 2.5zm0-13c-1.381 0-2.5-1.119-2.5-2.5v-10.857h-52.501c-1.381 0-2.5-1.119-2.5-2.5s1.119-2.5 2.5-2.5h55.001c1.381 0 2.5 1.119 2.5 2.5v13.357c0 1.381-1.119 2.5-2.5 2.5z" fill="#c5e5ff"/></g></g><g><path d="m37.296 42.966c0 8.849-16.023 32.625-16.023 32.625s-16.023-23.775-16.023-32.625 7.174-16.023 16.023-16.023 16.023 7.174 16.023 16.023z" fill="#fc5d3d"/></g><g><circle cx="26.532" cy="193.157" fill="#f0c020" r="18.736"/></g><g><path d="m245.047 156.919-14.707 14.707-14.707-14.707c-3.203-3.203-3.203-8.397 0-11.6 3.203-3.203 8.397-3.203 11.6 0l3.107 3.107 3.107-3.107c3.203-3.203 8.397-3.203 11.6 0 3.203 3.204 3.203 8.397 0 11.6z" fill="#fc5d3d"/></g><g><path d="m126.245 6.42 4.143 5.809 6.937 2.233c2.325.748 3.204 3.576 1.713 5.511l-4.315 5.599.132 7.314c.045 2.473-2.404 4.223-4.729 3.38l-6.753-2.448-6.753 2.448c-2.325.843-4.774-.907-4.729-3.38l.132-7.314-4.315-5.599c-1.491-1.935-.612-4.763 1.713-5.511l6.937-2.233 4.143-5.809c1.406-1.972 4.337-1.972 5.744 0z" fill="#f0c020"/></g><g><g><circle cx="225.482" cy="44.787" fill="#ffb69f" r="11.671"/></g><g><path d="m229.776 56.458h-8.588c-10.191 0-18.428 8.256-18.428 18.428v9.25h45.445v-9.25c-.001-10.172-8.239-18.428-18.429-18.428z" fill="#72c1e8"/></g></g><g><path d="m138.392 134.93c1.318.404 2.719-.334 3.125-1.654.784-2.549 1.182-5.198 1.182-7.875 0-14.708-11.967-26.675-26.675-26.675-14.702 0-26.663 11.966-26.663 26.675 0 5.628 1.728 11.012 4.998 15.57.806 1.124 2.369 1.378 3.488.574 1.122-.805 1.379-2.367.574-3.488-2.656-3.704-4.061-8.08-4.061-12.656 0-11.952 9.718-21.675 21.663-21.675 11.952 0 21.675 9.723 21.675 21.675 0 2.178-.323 4.333-.961 6.405-.406 1.319.335 2.718 1.655 3.124z"/><path d="m172.27 228.56c-1.37 0-2.489 1.12-2.489 2.5l-.011 20c0 1.38 1.13 2.5 2.5 2.5 1.38 0 2.5-1.12 2.5-2.5v-20c0-1.38-1.121-2.5-2.5-2.5z"/><circle cx="172.27" cy="221.06" r="2.5"/><path d="m139.38 98.98c.822-1.062.674-2.624-.46-3.5-1.07-.82-2.69-.6-3.51.46-.83 1.1-.63 2.67.47 3.51 1.03.797 2.624.679 3.5-.47z"/><path d="m23.773 42.966v-1.544c0-1.381-1.119-2.5-2.5-2.5s-2.5 1.119-2.5 2.5v1.544c0 1.381 1.119 2.5 2.5 2.5s2.5-1.119 2.5-2.5z"/><path d="m32.27 185.579-5.474 4.218-4.683-4.955c-.948-1.003-2.53-1.048-3.534-.1-1.003.948-1.048 2.531-.1 3.534l6.236 6.598c.877.928 2.321 1.05 3.343.263l7.264-5.598c1.094-.843 1.297-2.413.455-3.506-.843-1.093-2.412-1.296-3.507-.454z"/><path d="m204.254 157.926h-13.009l-37.567-33.659c-.109-3.708-.749-7.33-1.898-10.78l27.269-40.03h13.827c1.381 0 2.5-1.119 2.5-2.5s-1.119-2.5-2.5-2.5h-15.149c-.827 0-1.601.409-2.066 1.092l-26.204 38.466c-.889-1.702-1.911-3.345-3.067-4.915-.79-1.07-2.42-1.32-3.5-.54-1.109.82-1.34 2.39-.53 3.5 4.15 5.64 6.341 12.33 6.341 19.34 0 5.46-1.381 10.87-3.971 15.64h-15.12c-1.156 0-2.147-.965-2.149-2.156 0-.001 0-.003 0-.004v-12.53c0-6.31-5.195-11.288-11.29-11.28-6.223.008-11.28 5.088-11.28 11.285v29.775c-12.891-4.68-21.531-17.02-21.531-30.73.03-17.98 14.68-32.64 32.66-32.67 4.07 0 8.03.73 11.79 2.18 1.25.49 2.75-.18 3.23-1.42.51-1.337-.161-2.749-1.431-3.24-2.046-.789-4.146-1.388-6.286-1.808l1.631-40.372c.056-1.38-1.018-2.543-2.397-2.599-1.393-.063-2.543 1.017-2.599 2.397l-1.614 39.941c-7.339-.445-14.386 1.191-20.577 4.631l-33.872-44.356c-.473-.62-1.208-.983-1.987-.983h-14.446c-1.381 0-2.5 1.119-2.5 2.5s1.119 2.5 2.5 2.5h13.209l32.881 43.057c-8.093 6.04-13.543 15.067-14.869 25.349l-23.515-18.503c-.44-.347-.985-.535-1.546-.535h-10.666c-1.381 0-2.5 1.119-2.5 2.5s1.119 2.5 2.5 2.5h9.801l25.629 20.166c.181 5.647 1.602 11.31 4.49 16.652l-22.249 31.932h-10.05c-1.381 0-2.5 1.119-2.5 2.5s1.119 2.5 2.5 2.5h11.355c.818 0 1.584-.4 2.051-1.071l21.807-31.298c4.915 6.597 11.693 11.238 19.099 13.54v10.664c-3.49.651-6.142 3.715-6.142 7.391v13.365h-.327c-3.08 0-5.6 2.51-5.6 5.6v52.65c0 1.38 1.12 2.5 2.5 2.5s2.5-1.12 2.5-2.5v-52.65c0-.33.27-.6.6-.6h70.75c.33 0 .6.27.6.6v12.65c0 1.38 1.13 2.5 2.5 2.5 1.38 0 2.5-1.12 2.5-2.5v-12.65c0-3.09-2.51-5.6-5.6-5.6h-.323v-13.365c0-3.672-2.651-6.733-6.143-7.389v-19.742c0-6.216-5.058-11.273-11.273-11.273h-1.143c1.504-3.294 2.535-6.785 3.04-10.376l35.294 31.623c.458.411 1.053.638 1.668.638h13.965c1.381 0 2.5-1.119 2.5-2.5s-1.12-2.5-2.501-2.5zm-40.407 21.519v13.365h-60.099v-13.365c0-1.392 1.132-2.524 2.524-2.524h55.035c1.4 0 2.54 1.133 2.54 2.524zm-6.143-27.131v19.607h-47.814c0-.56-.003-45.098.005-45.659.058-3.452 2.897-6.192 6.278-6.193 3.499.012 6.287 2.884 6.287 6.285v12.52c0 3.951 3.209 7.166 7.154 7.166h21.817c3.459.001 6.273 2.815 6.273 6.274z"/><path d="m231.68 143.552-1.339 1.339-1.34-1.339c-4.172-4.173-10.963-4.173-15.135 0-4.173 4.172-4.173 10.962 0 15.135l14.707 14.707c.974.975 2.561.975 3.535 0l14.706-14.707c4.173-4.173 4.173-10.963 0-15.135-4.171-4.173-10.962-4.173-15.134 0zm11.599 11.6-12.938 12.938-12.939-12.938c-2.223-2.224-2.223-5.841 0-8.065 2.229-2.228 5.835-2.229 8.064 0l3.107 3.106c.977.976 2.559.976 3.535 0l3.106-3.106c2.225-2.223 5.84-2.223 8.064 0 2.224 2.224 2.224 5.841.001 8.065z"/><path d="m26.532 171.921c-11.709 0-21.236 9.526-21.236 21.235s9.526 21.236 21.236 21.236c11.709 0 21.235-9.526 21.235-21.236 0-11.708-9.526-21.235-21.235-21.235zm0 37.472c-8.953 0-16.236-7.283-16.236-16.236 0-8.952 7.283-16.235 16.236-16.235 8.952 0 16.235 7.283 16.235 16.235s-7.283 16.236-16.235 16.236z"/><path d="m11.42 59.33c1.257-.649 1.704-2.143 1.09-3.37-.65-1.255-2.193-1.686-3.37-1.08-1.224.643-1.718 2.134-1.08 3.37.627 1.225 2.116 1.719 3.36 1.08z"/><path d="m7.05 50.31c1.31-.43 2.02-1.85 1.58-3.16-.56-1.67-.89-3.23-.88-4.18.01-7.45 6.08-13.51 13.52-13.53 7.45.02 13.51 6.08 13.53 13.53.119 6.019-10.22 22.91-13.53 28.04-1.37-2.14-2.7-4.31-3.96-6.43-.68-1.14-2.28-1.55-3.43-.87-1.191.71-1.579 2.22-.87 3.43 3.34 5.62 6.18 9.83 6.19 9.85.968 1.452 3.149 1.482 4.15-.01 4.551-6.677 16.342-25.553 16.45-34.01-.01-10.22-8.31-18.52-18.53-18.53-10.21.01-18.52 8.31-18.52 18.53.01 1.61.36 3.39 1.14 5.76.42 1.28 1.87 2.01 3.16 1.58z"/><path d="m109.507 26.404-.116 6.438c-.076 4.226 4.115 7.213 8.081 5.775l5.9-2.139 5.9 2.139c3.969 1.44 8.157-1.552 8.082-5.775l-.116-6.438 3.779-4.905c2.544-3.303 1.042-8.141-2.928-9.417l-6.147-1.979-3.663-5.135c-2.4-3.366-7.414-3.367-9.815 0l-3.662 5.135-6.147 1.979c-3.969 1.277-5.473 6.114-2.928 9.417zm.68-9.562 6.937-2.232c.512-.165.957-.49 1.27-.928l4.143-5.809c.411-.577 1.262-.577 1.673 0l4.143 5.809c.312.438.757.763 1.27.928l6.937 2.232c.678.218.935 1.039.498 1.605l-4.314 5.599c-.347.45-.529 1.003-.52 1.571l.132 7.314c.013.719-.697 1.233-1.378.984l-6.752-2.448c-.551-.2-1.153-.2-1.704 0l-6.753 2.448c-.676.245-1.39-.26-1.377-.985l.131-7.314c.01-.567-.173-1.122-.519-1.571l-4.315-5.599c-.435-.563-.182-1.386.498-1.604z"/><path d="m235.519 54.779c2.553-2.564 4.134-6.097 4.134-9.992 0-7.814-6.357-14.171-14.172-14.171-7.813 0-14.171 6.357-14.171 14.171 0 3.895 1.581 7.428 4.134 9.992-8.753 2.505-15.185 10.562-15.185 20.108v9.25c0 1.381 1.119 2.5 2.5 2.5s2.5-1.119 2.5-2.5v-9.25c0-8.783 7.146-15.929 15.929-15.929h8.588c8.783 0 15.929 7.146 15.929 15.929v9.25c0 1.381 1.119 2.5 2.5 2.5s2.5-1.119 2.5-2.5v-9.25c-.001-9.547-6.433-17.603-15.186-20.108zm-10.038-19.164c5.058 0 9.172 4.114 9.172 9.171s-4.114 9.171-9.172 9.171c-5.057 0-9.171-4.114-9.171-9.171s4.115-9.171 9.171-9.171z"/><path d="m32.29 101.469h-22.661c-1.381 0-2.5 1.119-2.5 2.5s1.119 2.5 2.5 2.5h22.66c1.381 0 2.5-1.119 2.5-2.5s-1.119-2.5-2.499-2.5z"/><path d="m32.29 115.07h-22.661c-1.381 0-2.5 1.119-2.5 2.5s1.119 2.5 2.5 2.5h22.66c1.381 0 2.5-1.119 2.5-2.5s-1.119-2.5-2.499-2.5z"/><path d="m32.29 128.67h-22.661c-1.381 0-2.5 1.119-2.5 2.5s1.119 2.5 2.5 2.5h22.66c1.381 0 2.5-1.119 2.5-2.5s-1.119-2.5-2.499-2.5z"/></g></g></svg>